HIERARCHY
ROOT Hips
{
	OFFSET 0.00000 0.00000 0.00000
	CHANNELS 6 Xposition Yposition Zposition Zrotation Yrotation Xrotation 
	JOINT LHipJoint
	{
		OFFSET 0 0 0
		CHANNELS 3 Zrotation Yrotation Xrotation
		JOINT LeftUpLeg
		{
			OFFSET 1.28366 -1.58472 0.87544
			CHANNELS 3 Zrotation Yrotation Xrotation
			JOINT LeftLeg
			{
				OFFSET 2.18587 -6.00562 0.00000
				CHANNELS 3 Zrotation Yrotation Xrotation
				JOINT LeftFoot
				{
					OFFSET 2.39085 -6.56880 0.00000
					CHANNELS 3 Zrotation Yrotation Xrotation
					JOINT LeftToeBase
					{
						OFFSET 0.12003 -0.32979 2.03101
						CHANNELS 3 Zrotation Yrotation Xrotation
						End Site
						{
							OFFSET 0.00000 -0.00000 1.04074
						}
					}
				}
			}
		}
	}
	JOINT RHipJoint
	{
		OFFSET 0 0 0
		CHANNELS 3 Zrotation Yrotation Xrotation
		JOINT RightUpLeg
		{
			OFFSET -1.21795 -1.58472 0.87544
			CHANNELS 3 Zrotation Yrotation Xrotation
			JOINT RightLeg
			{
				OFFSET -2.22714 -6.11902 0.00000
				CHANNELS 3 Zrotation Yrotation Xrotation
				JOINT RightFoot
				{
					OFFSET -2.40306 -6.60235 0.00000
					CHANNELS 3 Zrotation Yrotation Xrotation
					JOINT RightToeBase
					{
						OFFSET -0.15519 -0.42640 1.91430
						CHANNELS 3 Zrotation Yrotation Xrotation
						End Site
						{
							OFFSET -0.00000 -0.00000 0.99082
						}
					}
				}
			}
		}
	}
	JOINT LowerBack
	{
		OFFSET 0 0 0
		CHANNELS 3 Zrotation Yrotation Xrotation
		JOINT Spine
		{
			OFFSET 0.01180 1.76430 -0.06387
			CHANNELS 3 Zrotation Yrotation Xrotation
			JOINT Spine1
			{
				OFFSET -0.00388 1.74651 0.09536
				CHANNELS 3 Zrotation Yrotation Xrotation
				JOINT Neck
				{
					OFFSET 0 0 0
					CHANNELS 3 Zrotation Yrotation Xrotation
					JOINT Neck1
					{
						OFFSET 0.04111 1.46174 0.14397
						CHANNELS 3 Zrotation Yrotation Xrotation
						JOINT Head
						{
							OFFSET 0.00502 1.44580 -0.31711
							CHANNELS 3 Zrotation Yrotation Xrotation
							End Site
							{
								OFFSET -0.00395 1.49251 -0.12327
							}
						}
					}
				}
				JOINT LeftShoulder
				{
					OFFSET 0 0 0
					CHANNELS 3 Zrotation Yrotation Xrotation
					JOINT LeftArm
					{
						OFFSET 2.70917 1.34870 -0.15417
						CHANNELS 3 Zrotation Yrotation Xrotation
						JOINT LeftForeArm
						{
							OFFSET 4.46610 -0.00000 -0.00000
							CHANNELS 3 Zrotation Yrotation Xrotation
							JOINT LeftHand
							{
								OFFSET 3.41414 -0.00000 0.00000
								CHANNELS 3 Zrotation Yrotation Xrotation
								JOINT LeftFingerBase
								{
									OFFSET 0 0 0
									CHANNELS 3 Zrotation Yrotation Xrotation
									JOINT LeftHandIndex1
									{
										OFFSET 0.32830 -0.00000 0.00000
										CHANNELS 3 Zrotation Yrotation Xrotation
										End Site
										{
											OFFSET 0.26468 -0.00000 0.00000
										}
									}
								}
								JOINT LThumb
								{
									OFFSET 0 0 0
									CHANNELS 3 Zrotation Yrotation Xrotation
									End Site
									{
										OFFSET 0.26872 -0.00000 0.26872
									}
								}
							}
						}
					}
				}
				JOINT RightShoulder
				{
					OFFSET 0 0 0
					CHANNELS 3 Zrotation Yrotation Xrotation
					JOINT RightArm
					{
						OFFSET -3.06316 1.13725 -0.10883
						CHANNELS 3 Zrotation Yrotation Xrotation
						JOINT RightForeArm
						{
							OFFSET -4.40431 -0.00000 0.00000
							CHANNELS 3 Zrotation Yrotation Xrotation
							JOINT RightHand
							{
								OFFSET -3.04688 -0.00000 0.00000
								CHANNELS 3 Zrotation Yrotation Xrotation
								JOINT RightFingerBase
								{
									OFFSET 0 0 0
									CHANNELS 3 Zrotation Yrotation Xrotation
									JOINT RightHandIndex1
									{
										OFFSET -0.50049 -0.00000 0.00000
										CHANNELS 3 Zrotation Yrotation Xrotation
										End Site
										{
											OFFSET -0.40351 -0.00000 0.00000
										}
									}
								}
								JOINT RThumb
								{
									OFFSET 0 0 0
									CHANNELS 3 Zrotation Yrotation Xrotation
									End Site
									{
										OFFSET -0.40967 -0.00000 0.40967
									}
								}
							}
						}
					}
				}
			}
		}
	}
}
MOTION
Frames: 11
Frame Time: .0083333
24.3850 14.6876 2.1090 -175.6480 37.4515 -173.3210 0.0000 0.0000 0.0000 -4.1942 -5.9109 -6.6791 3.7207 11.7792 34.9551 1.5305 7.7669 -27.3098 0.1666 2.6297 7.2494 0.0000 0.0000 0.0000 4.1818 1.3584 -30.8121 -2.0101 -8.8870 25.4426 -0.2506 -18.1584 -27.7183 -0.0407 -1.3025 3.5817 1.2848 0.3476 6.3812 -7.3868 0.9430 -12.4648 -9.7348 0.0140 -17.7222 -9.4732 -14.9786 -9.0125 6.3879 -18.7703 -3.2067 2.5526 -8.9836 2.0882 -0.0000 0.0000 0.0000 19.1581 8.4713 3.5912 15.6830 -25.0889 -3.5105 -0.0000 -0.0000 2.2678 -4.5723 7.7176 -0.6153 -7.1250 0.0000 -0.0000 -26.0127 36.4616 5.9719 -0.0000 0.0000 0.0000 -31.8525 21.5553 -46.0542 -87.5282 59.9769 -57.8595 0.0000 -0.0000 -47.1309 -42.4024 18.3484 -16.0384 7.1250 -0.0000 -0.0000 -9.0433 -6.0448 -8.1453
24.5355 14.7055 2.1439 -175.5970 37.8872 -173.1090 0.0000 0.0000 0.0000 -4.4120 -6.3887 -6.0961 3.6477 11.6762 34.5958 1.5162 8.0011 -27.3643 0.2054 2.9179 8.0504 0.0000 0.0000 0.0000 4.9551 0.6702 -31.9841 -2.1806 -9.2326 26.5256 -0.2846 -17.4176 -27.0442 -0.0166 -0.8317 2.2859 1.0967 0.4177 6.1954 -7.4375 1.0370 -12.6125 -9.7128 0.0848 -17.7722 -9.4206 -14.9307 -9.1681 6.2245 -18.6681 -3.3761 2.4989 -8.9248 2.0244 -0.0000 0.0000 0.0000 19.1588 8.6464 3.2985 15.7002 -25.1124 -3.5178 -0.0000 -0.0000 2.7047 -4.4710 7.4762 -0.5829 -7.1250 0.0000 -0.0000 -25.8583 36.2512 6.0771 -0.0000 0.0000 0.0000 -31.4727 20.7247 -45.4526 -91.1917 59.9946 -61.0320 0.0000 -0.0000 -44.5703 -44.0762 19.4563 -17.8753 7.1250 -0.0000 -0.0000 -9.8192 -4.1224 -9.2270
24.6766 14.7180 2.1792 -175.6400 38.3911 -173.0130 0.0000 0.0000 0.0000 -4.8188 -6.5052 -5.7979 3.6429 11.6695 34.5725 1.5282 8.0610 -27.4890 0.2033 2.9033 8.0097 0.0000 0.0000 0.0000 5.6203 0.0673 -33.0541 -2.3582 -9.5754 27.6125 -0.3329 -16.6938 -26.5273 -0.0048 -0.4486 1.2325 0.8311 0.4918 6.0757 -7.4741 1.1182 -12.7277 -9.6261 0.1595 -17.8265 -9.3742 -14.8541 -9.3375 6.0965 -18.5261 -3.5530 2.4602 -8.8452 1.9629 -0.0000 0.0000 0.0000 19.1477 8.9368 3.2215 15.6859 -25.0929 -3.5117 -0.0000 -0.0000 3.1099 -4.3911 7.2715 -0.5569 -7.1250 0.0000 -0.0000 -25.7328 36.0719 6.1669 -0.0000 0.0000 0.0000 -30.8411 19.9051 -44.5891 -94.9334 59.9078 -64.2712 0.0000 -0.0000 -41.9565 -45.6804 20.4886 -19.7194 7.1250 -0.0000 -0.0000 -10.5357 -2.2509 -10.2913
24.8082 14.7274 2.2150 -175.7760 38.9486 -173.0390 0.0000 0.0000 0.0000 -5.4043 -6.1773 -5.8432 3.7101 11.7642 34.9030 1.5614 7.9433 -27.6430 0.1611 2.5857 7.1274 0.0000 0.0000 0.0000 6.1629 -0.4076 -33.9645 -2.5326 -9.8969 28.6436 -0.3799 -16.0578 -26.1333 -0.0004 -0.1365 0.3751 0.4994 0.5681 6.0375 -7.4982 1.1849 -12.8119 -9.4851 0.2345 -17.8985 -9.3490 -14.7567 -9.5074 6.0072 -18.3555 -3.7356 2.4394 -8.7504 1.9050 -0.0000 0.0000 0.0000 19.1265 9.3176 3.3243 15.6350 -25.0233 -3.4902 -0.0000 -0.0000 3.4888 -4.3259 7.0975 -0.5355 -7.1250 0.0000 -0.0000 -25.6288 35.9193 6.2431 -0.0000 0.0000 0.0000 -29.9787 19.1120 -43.4588 -98.7065 59.7116 -67.5327 0.0000 -0.0000 -39.2874 -47.1668 21.4497 -21.5265 7.1250 -0.0000 -0.0000 -11.1699 -0.4520 -11.2989
24.9304 14.7353 2.2510 -175.9970 39.5351 -173.1790 0.0000 0.0000 0.0000 -6.1626 -5.4004 -6.2588 3.8500 11.9580 35.5837 1.6165 7.6189 -27.8141 0.1014 2.0532 5.6527 0.0000 0.0000 0.0000 6.5840 -0.7702 -34.7130 -2.6964 -10.1866 29.5831 -0.4200 -15.5061 -25.8040 -0.0004 0.1345 -0.3695 0.1204 0.6418 6.0894 -7.5105 1.2326 -12.8697 -9.3028 0.3045 -18.0018 -9.3249 -14.6409 -9.6701 5.9291 -18.1608 -3.9314 2.4254 -8.6437 1.8414 -0.0000 0.0000 0.0000 19.0882 9.7729 3.5854 15.5580 -24.9176 -3.4576 -0.0000 -0.0000 3.8115 -4.2916 6.9978 -0.5238 -7.1250 0.0000 -0.0000 -25.5718 35.8313 6.2873 -0.0000 0.0000 0.0000 -28.9141 18.3793 -42.0777 -102.4204 59.4090 -70.7350 0.0000 -0.0000 -36.5559 -48.4818 22.4166 -23.3039 7.1250 -0.0000 -0.0000 -11.6790 1.3353 -12.2020
25.0437 14.7427 2.2876 -176.2780 40.1186 -173.4140 0.0000 0.0000 0.0000 -7.0742 -4.2262 -7.0361 4.0607 12.2407 36.5889 1.6878 7.0800 -27.9658 0.0469 1.3972 3.8423 0.0000 0.0000 0.0000 6.9090 -1.0399 -35.2977 -2.8455 -10.4407 30.4161 -0.4564 -15.0065 -25.5217 -0.0038 0.3956 -1.0871 -0.2730 0.7098 6.2332 -7.5103 1.2607 -12.9012 -9.0980 0.3646 -18.1380 -9.3133 -14.5197 -9.8159 5.8612 -17.9589 -4.1473 2.4189 -8.5330 1.7703 0.0000 0.0000 0.0000 18.9880 10.2513 3.8177 15.4462 -24.7640 -3.4107 -0.0000 -0.0000 4.1854 -4.2954 6.9248 -0.5188 -7.1250 0.0000 -0.0000 -25.5525 35.7651 6.3274 0.0000 0.0000 0.0000 -27.6832 17.7205 -40.4506 -105.9643 59.0148 -73.7797 0.0000 -0.0000 -33.7276 -49.6207 23.3341 -24.9737 7.1250 -0.0000 -0.0000 -12.0803 3.0214 -12.9863
25.1485 14.7499 2.3244 -176.5580 40.6669 -173.6970 0.0000 0.0000 0.0000 -8.0982 -2.7469 -8.1426 4.3381 12.5972 37.8787 1.7672 6.3784 -28.0865 0.0131 0.7396 2.0324 0.0000 0.0000 0.0000 7.1973 -1.2509 -35.7425 -2.9799 -10.6624 31.1496 -0.4968 -14.5114 -25.2916 -0.0104 0.6598 -1.8133 -0.6286 0.7714 6.4585 -7.4889 1.2754 -12.9063 -8.8904 0.4113 -18.2983 -9.3092 -14.4042 -9.9546 5.7838 -17.7640 -4.3751 2.4107 -8.4257 1.6945 0.0000 -0.0000 0.0000 18.8040 10.7328 3.9761 15.3129 -24.5802 -3.3550 -0.0000 -0.0000 4.5711 -4.3433 6.8735 -0.5208 -7.1250 0.0000 -0.0000 -25.5738 35.7152 6.3682 0.0000 -0.0000 0.0000 -26.3085 17.1308 -38.5739 -109.2565 58.5514 -76.5955 0.0000 -0.0000 -30.7744 -50.6283 24.2036 -26.5477 7.1250 -0.0000 -0.0000 -12.4049 4.6131 -13.6759
25.2455 14.7570 2.3613 -176.7750 41.1545 -173.9680 0.0000 0.0000 0.0000 -9.1873 -1.0701 -9.5324 4.6747 13.0078 39.3977 1.8579 5.4962 -28.2031 0.0009 0.1949 0.5355 0.0000 0.0000 0.0000 7.5026 -1.4112 -36.0708 -3.1011 -10.8570 31.7992 -0.5472 -13.9981 -25.1399 -0.0188 0.8843 -2.4305 -0.8996 0.8237 6.7381 -7.4387 1.2817 -12.8863 -8.6958 0.4421 -18.4640 -9.3117 -14.3019 -10.1004 5.6984 -17.5849 -4.6026 2.3990 -8.3258 1.6210 -0.0000 -0.0000 0.0000 18.5268 11.2049 4.0321 15.1670 -24.3782 -3.2946 -0.0000 -0.0000 4.9375 -4.4266 6.8186 -0.5266 -7.1250 0.0000 -0.0000 -25.6213 35.6597 6.4207 -0.0000 -0.0000 0.0000 -24.8148 16.6001 -36.4533 -112.2292 58.0480 -79.1248 0.0000 -0.0000 -27.7205 -51.5304 25.0009 -28.0086 7.1250 -0.0000 -0.0000 -12.6778 6.0821 -14.2873
25.3357 14.7631 2.3980 -176.8580 41.5616 -174.1650 0.0000 0.0000 0.0000 -10.2847 0.6944 -11.1592 5.0593 13.4503 41.0784 1.9488 4.5140 -28.2987 0.0018 -0.2768 -0.7605 0.0000 0.0000 0.0000 7.8851 -1.5329 -36.3120 -3.2124 -11.0311 32.3849 -0.6064 -13.4890 -25.0813 -0.0274 1.0678 -2.9355 -1.0432 0.8653 7.0408 -7.3490 1.2873 -12.8388 -8.5234 0.4565 -18.6083 -9.3145 -14.2155 -10.2703 5.5977 -17.4244 -4.8200 2.3787 -8.2346 1.5548 0.0000 -0.0000 0.0000 18.1575 11.6646 4.0083 15.0180 -24.1712 -3.2333 -0.0000 -0.0000 5.2345 -4.5100 6.7797 -0.5335 -7.1250 0.0000 -0.0000 -25.6735 35.6187 6.4648 0.0000 -0.0000 0.0000 -23.2201 16.0978 -34.0938 -114.8366 57.5358 -81.3312 0.0000 -0.0000 -24.5998 -52.3957 25.7560 -29.4305 7.1250 -0.0000 -0.0000 -12.9316 7.4953 -14.8683
25.4213 14.7678 2.4348 -176.7080 41.8755 -174.2060 0.0000 0.0000 0.0000 -11.2987 2.4517 -12.9645 5.4764 13.9010 42.8422 2.0377 3.4393 -28.3742 0.0089 -0.6098 -1.6758 0.0000 0.0000 0.0000 8.4223 -1.5910 -36.4723 -3.3161 -11.1900 32.9235 -0.6686 -13.0599 -25.1457 -0.0360 1.2255 -3.3695 -1.0160 0.8981 7.3312 -7.1999 1.3061 -12.7665 -8.3733 0.4576 -18.7066 -9.3158 -14.1448 -10.4562 5.4840 -17.2835 -5.0247 2.3508 -8.1530 1.4954 0.0000 0.0000 0.0000 17.7195 12.1038 3.9882 14.8694 -23.9639 -3.1727 -0.0000 -0.0000 5.4086 -4.6066 6.7608 -0.5435 -7.1250 0.0000 -0.0000 -25.7420 35.5948 6.5019 0.0000 0.0000 0.0000 -21.5251 15.5470 -31.4929 -117.1085 57.0325 -83.2428 0.0000 -0.0000 -21.4875 -53.2483 26.4597 -30.8224 7.1250 -0.0000 -0.0000 -13.1837 8.8521 -15.4385
25.5028 14.7704 2.4715 -176.3110 42.0925 -174.0630 0.0000 0.0000 0.0000 -12.2148 4.1302 -14.9042 5.9067 14.3373 44.6062 2.1160 2.3764 -28.4261 0.0150 -0.7896 -2.1702 0.0000 0.0000 0.0000 9.1319 -1.6158 -36.5932 -3.4157 -11.3393 33.4331 -0.7304 -12.7290 -25.3146 -0.0435 1.3462 -3.7018 -0.8191 0.9199 7.5866 -6.9893 1.3400 -12.6724 -8.2414 0.4477 -18.7468 -9.3211 -14.0896 -10.6597 5.3724 -17.1615 -5.2145 2.3209 -8.0803 1.4460 0.0000 0.0000 0.0000 17.2402 12.5206 4.0369 14.7161 -23.7491 -3.1107 -0.0000 -0.0000 5.4674 -4.7301 6.7377 -0.5562 -7.1250 0.0000 -0.0000 -25.8299 35.5654 6.5490 0.0000 0.0000 0.0000 -19.7447 14.8970 -28.6728 -119.0396 56.5605 -84.8586 0.0000 -0.0000 -18.4573 -54.0890 27.1223 -32.1919 7.1250 -0.0000 -0.0000 -13.4328 10.1649 -15.9982
